<?xml version="1.0" encoding="utf-8"?>
<!-- Uploaded to: SVG Repo, www.svgrepo.com, Generator: SVG Repo Mixer Tools -->
<svg width="800px" height="800px" viewBox="0 -15.84 167.33 167.33" xmlns="http://www.w3.org/2000/svg">

<defs>

<style>.cls-1{fill:#ffffff;}</style>

</defs>

<g id="Layer_2" data-name="Layer 2">

<g id="Layer_1-2" data-name="Layer 1">

<path d="M72.31,26.29C83.55,20.17,93.76,14.41,104.16,9c9-4.66,18.68-7.17,28.64-8.63A26.21,26.21,0,0,1,144.67,1c4.58,1.45,6.32,3.55,5.51,8.2-.72,4.14,0,7.9.92,11.83,1.52,6.39,2.75,12.84,4,19.29,2.22,11.49,4.25,23,6.58,34.5.68,3.34,2.14,6.51,3.19,9.78A68.67,68.67,0,0,1,167.08,92c1.17,5.65-1.78,10.23-7.42,11.54-5,1.16-10.1,2-15.1,3.19a74,74,0,0,0-38.93,23.64,15.52,15.52,0,0,1-9.52,5.12A10.56,10.56,0,0,1,88,133.7c-10.84-7.23-23.19-11.06-35.33-15.25-8.79-3-18-3-27.2-2.3a98.18,98.18,0,0,1-10.27.57c-4.73-.12-6.15-1.5-6.58-6.11q-1-11.1-1.76-22.24c-1.34-20-3-39.93-6.55-59.68-.78-4.36-.25-5.75,3.58-7.54A55.71,55.71,0,0,1,12.77,18c18.85-5.15,36.84-2,54.33,5.76C68.92,24.59,70.69,25.5,72.31,26.29Zm26.54,94.56c3.21-2.68,6-5.08,8.82-7.35a88.92,88.92,0,0,1,41.07-18.27c2.18-.36,4.58-.5,6-2.81-7.5-26.83-12.72-54.19-16.7-81.55C125.87,8,92,24.73,80.65,36c-.67,7.56,1.23,15.08,2.54,22.63,1.27,7.3,3.41,14.49,4.16,21.83.88,8.59,3.52,16.67,5.79,24.86C94.51,110.24,96.65,115,98.85,120.85ZM12.32,29.41c.12,2.09.08,3.52.29,4.92,3.09,21,5.95,41.94,6.16,63.18a16.85,16.85,0,0,0,2.17,8.25c2.16,0,4.13.13,6.08,0a88,88,0,0,1,39.63,5.63c4.53,1.78,9,3.66,13.55,5.41a42.14,42.14,0,0,0,4.67,1.14,46.6,46.6,0,0,0-1.05-4.82c-5.6-16-7.87-32.78-11.17-49.31-1.34-6.7-1.76-13.61-2.43-20.44-.36-3.74-2-6.12-5.38-8.05a76.81,76.81,0,0,0-30.95-9.55A42.45,42.45,0,0,0,12.32,29.41Z"/>

<path class="cls-1" d="M98.85,120.85c-2.2-5.89-4.34-10.61-5.71-15.54C90.87,97.12,88.23,89,87.35,80.45c-.75-7.34-2.89-14.53-4.16-21.83C81.88,51.07,80,43.55,80.65,36,92,24.73,125.87,8,138.07,10.87c4,27.36,9.2,54.72,16.7,81.55-1.45,2.31-3.85,2.45-6,2.81a88.92,88.92,0,0,0-41.07,18.27C104.81,115.77,102.06,118.17,98.85,120.85Z"/>

<path class="cls-1" d="M12.32,29.41a42.45,42.45,0,0,1,21.57-3.66,76.81,76.81,0,0,1,31,9.55c3.42,1.93,5,4.31,5.38,8.05.67,6.83,1.09,13.74,2.43,20.44,3.3,16.53,5.57,33.3,11.17,49.31a46.6,46.6,0,0,1,1.05,4.82,42.14,42.14,0,0,1-4.67-1.14c-4.54-1.75-9-3.63-13.55-5.41A88,88,0,0,0,27,105.74c-1.95.15-3.92,0-6.08,0a16.85,16.85,0,0,1-2.17-8.25c-.21-21.24-3.07-42.22-6.16-63.18C12.4,32.93,12.44,31.5,12.32,29.41Z"/>

</g>

</g>

</svg>