<?xml version="1.0" encoding="utf-8"?>
<!-- Uploaded to: SVG Repo, www.svgrepo.com, Generator: SVG Repo Mixer Tools -->
<svg fill="#000000" width="800px" height="800px" viewBox="-8 0 32 32" version="1.1" xmlns="http://www.w3.org/2000/svg">
<title>walking</title>
<path d="M9.5 7.063c0-1.25-1.031-2.281-2.313-2.281-1.25 0-2.25 1.031-2.25 2.281 0 1.281 1 2.281 2.25 2.281 1.281 0 2.313-1 2.313-2.281zM7.031 27.188h-2.031s-0.094-5.781 0.063-6.469c0.125-0.688 1.469-2.125 1.531-2.688 0.063-0.594-0.531-3.031-0.531-3.031s-1.344 1.219-1.781 1.438-3.875 0.781-3.875 0.781l-0.406-1.75s3.281-0.719 3.75-1.094c0.469-0.344 1.719-3.375 2.656-3.75 0.625-0.281 2.313-0.156 3.156-0.156 0.875 0 3.75 1.656 4.031 2.031 0.313 0.344 2.031 3.719 2.031 3.719l-1.563 0.875-1.25-2.688s-0.969-0.813-1.344-0.938c-0.406-0.125-0.938-0.281-1.031 0.063-0.125 0.313 0.719 2.875 0.938 3.594 0.188 0.75 1.219 4.156 1.594 4.875s2.594 3.906 2.594 3.906l-1.906 1.25s-2.719-3.688-3.063-4.219c-0.375-0.531-1.438-3.375-1.438-3.375s-1.813 2.219-1.969 2.906c-0.125 0.625-0.156 4.719-0.156 4.719z"></path>
</svg>